<svg width="400" height="400" viewBox="0 0 400 400" fill="none" xmlns="http://www.w3.org/2000/svg">
<path d="M316.835 331.913V358.749C316.836 360.369 316.528 361.974 315.931 363.471C315.333 364.968 314.457 366.328 313.352 367.473C312.246 368.618 310.932 369.525 309.487 370.143C308.042 370.761 306.494 371.079 304.931 371.075H281.125C279.562 371.079 278.014 370.761 276.569 370.143C275.124 369.525 273.811 368.618 272.705 367.473C271.6 366.328 270.723 364.968 270.125 363.471C269.527 361.974 269.221 360.369 269.222 358.749V331.913M132.371 331.913V358.749C132.373 360.369 132.067 361.974 131.469 363.471C130.871 364.968 129.994 366.328 128.888 367.473C127.782 368.618 126.47 369.525 125.025 370.143C123.58 370.761 122.03 371.079 120.467 371.075H96.6612C95.0982 371.079 93.5501 370.761 92.1053 370.143C90.6605 369.525 89.3477 368.618 88.2419 367.473C87.1361 366.328 86.2592 364.968 85.6614 363.471C85.0636 361.974 84.7572 360.369 84.7588 358.749V331.913" fill="#2B4255"/>
<path d="M340.629 333.384H60.9525V63.1065C60.9493 58.9711 61.7333 54.8766 63.2608 51.0563C64.7883 47.236 67.0282 43.7657 69.8527 40.845C72.6772 37.9244 76.0312 35.6096 79.7206 34.0354C83.4099 32.4613 87.3625 31.6588 91.3522 31.672H310.228C314.218 31.6588 318.17 32.4613 321.86 34.0354C325.549 35.6096 328.903 37.9244 331.728 40.845C334.552 43.7657 336.792 47.236 338.319 51.0563C339.847 54.8766 340.632 58.9711 340.629 63.1065V333.384Z" fill="#F8B84E"/>
<path d="M49.2795 270.639H352.314V308.331H49.2795V270.639Z" fill="#34485C"/>
<path d="M68.0915 95.7604H199.002V221.4H68.0915V95.7604ZM203.221 95.7604H331.126V221.4H203.221V95.7604Z" fill="#4BBFEB"/>
<path fill-rule="evenodd" clip-rule="evenodd" d="M60.9525 87.0794V99.6434H340.52V87.0794H60.9525ZM60.9525 216.589V229.152H340.835V216.589H60.9525Z" fill="#34485C"/>
<path fill-rule="evenodd" clip-rule="evenodd" d="M81.11 241.264V253.828H117.474V241.264H81.11ZM283.44 241.264V253.828H319.804V241.264H283.44Z" fill="#F05542"/>
<path fill-rule="evenodd" clip-rule="evenodd" d="M194.736 92.2295V221.639H206.857V92.2295H194.736Z" fill="#34485C"/>
<path fill-rule="evenodd" clip-rule="evenodd" d="M31.0974 111.818V164.373H43.2188V124.382H61.4009V111.818H31.0974ZM340.193 111.818V124.382H358.375V164.373H370.496V111.818H340.193Z" fill="#576D7E"/>
<path fill-rule="evenodd" clip-rule="evenodd" d="M60.9525 92.2295V221.639H73.0739V92.2295H60.9525ZM328.714 92.2295V221.639H340.835V92.2295H328.714Z" fill="#34485C"/>
</svg>
